<svg width="154" height="72" viewBox="0 0 154 72" fill="none" xmlns="http://www.w3.org/2000/svg">
<g clip-path="url(#clip0_5400_1287)">
<path d="M17.376 24.336C16.528 24.336 15.768 24.192 15.096 23.904C14.424 23.6 13.888 23.168 13.488 22.608C13.104 22.032 12.912 21.336 12.912 20.52C12.912 19.704 13.104 19.024 13.488 18.48C13.888 17.92 14.432 17.504 15.12 17.232C15.824 16.944 16.624 16.8 17.52 16.8H20.784V16.128C20.784 15.568 20.608 15.112 20.256 14.76C19.904 14.392 19.344 14.208 18.576 14.208C17.824 14.208 17.264 14.384 16.896 14.736C16.528 15.072 16.288 15.512 16.176 16.056L13.392 15.12C13.584 14.512 13.888 13.96 14.304 13.464C14.736 12.952 15.304 12.544 16.008 12.24C16.728 11.92 17.6 11.76 18.624 11.76C20.192 11.76 21.432 12.152 22.344 12.936C23.256 13.72 23.712 14.856 23.712 16.344V20.784C23.712 21.264 23.936 21.504 24.384 21.504H25.344V24H23.328C22.736 24 22.248 23.856 21.864 23.568C21.48 23.28 21.288 22.896 21.288 22.416V22.392H20.832C20.768 22.584 20.624 22.84 20.4 23.16C20.176 23.464 19.824 23.736 19.344 23.976C18.864 24.216 18.208 24.336 17.376 24.336ZM17.904 21.888C18.752 21.888 19.44 21.656 19.968 21.192C20.512 20.712 20.784 20.08 20.784 19.296V19.056H17.736C17.176 19.056 16.736 19.176 16.416 19.416C16.096 19.656 15.936 19.992 15.936 20.424C15.936 20.856 16.104 21.208 16.44 21.48C16.776 21.752 17.264 21.888 17.904 21.888ZM31.7873 24.336C30.8433 24.336 29.9553 24.104 29.1233 23.64C28.3073 23.16 27.6513 22.464 27.1553 21.552C26.6593 20.64 26.4113 19.536 26.4113 18.24V17.856C26.4113 16.56 26.6593 15.456 27.1553 14.544C27.6513 13.632 28.3073 12.944 29.1233 12.48C29.9393 12 30.8273 11.76 31.7873 11.76C32.5073 11.76 33.1073 11.848 33.5873 12.024C34.0833 12.184 34.4833 12.392 34.7873 12.648C35.0913 12.904 35.3233 13.176 35.4833 13.464H35.9153V7.2H38.9393V24H35.9633V22.56H35.5313C35.2593 23.008 34.8353 23.416 34.2593 23.784C33.6993 24.152 32.8753 24.336 31.7873 24.336ZM32.6993 21.696C33.6273 21.696 34.4033 21.4 35.0273 20.808C35.6513 20.2 35.9633 19.32 35.9633 18.168V17.928C35.9633 16.776 35.6513 15.904 35.0273 15.312C34.4193 14.704 33.6433 14.4 32.6993 14.4C31.7713 14.4 30.9953 14.704 30.3713 15.312C29.7473 15.904 29.4353 16.776 29.4353 17.928V18.168C29.4353 19.32 29.7473 20.2 30.3713 20.808C30.9953 21.4 31.7713 21.696 32.6993 21.696ZM45.6546 24.336C44.8066 24.336 44.0466 24.192 43.3746 23.904C42.7026 23.6 42.1666 23.168 41.7666 22.608C41.3826 22.032 41.1906 21.336 41.1906 20.52C41.1906 19.704 41.3826 19.024 41.7666 18.48C42.1666 17.92 42.7106 17.504 43.3986 17.232C44.1026 16.944 44.9026 16.8 45.7986 16.8H49.0626V16.128C49.0626 15.568 48.8866 15.112 48.5346 14.76C48.1826 14.392 47.6226 14.208 46.8546 14.208C46.1026 14.208 45.5426 14.384 45.1746 14.736C44.8066 15.072 44.5666 15.512 44.4546 16.056L41.6706 15.12C41.8626 14.512 42.1666 13.96 42.5826 13.464C43.0146 12.952 43.5826 12.544 44.2866 12.24C45.0066 11.92 45.8786 11.76 46.9026 11.76C48.4706 11.76 49.7106 12.152 50.6226 12.936C51.5346 13.72 51.9906 14.856 51.9906 16.344V20.784C51.9906 21.264 52.2146 21.504 52.6626 21.504H53.6226V24H51.6066C51.0146 24 50.5266 23.856 50.1426 23.568C49.7586 23.28 49.5666 22.896 49.5666 22.416V22.392H49.1106C49.0466 22.584 48.9026 22.84 48.6786 23.16C48.4546 23.464 48.1026 23.736 47.6226 23.976C47.1426 24.216 46.4866 24.336 45.6546 24.336ZM46.1826 21.888C47.0306 21.888 47.7186 21.656 48.2466 21.192C48.7906 20.712 49.0626 20.08 49.0626 19.296V19.056H46.0146C45.4546 19.056 45.0146 19.176 44.6946 19.416C44.3746 19.656 44.2146 19.992 44.2146 20.424C44.2146 20.856 44.3826 21.208 44.7186 21.48C45.0546 21.752 45.5426 21.888 46.1826 21.888ZM55.5003 24V12.096H58.4763V13.392H58.9083C59.1163 12.992 59.4603 12.648 59.9403 12.36C60.4203 12.056 61.0523 11.904 61.8363 11.904C62.6843 11.904 63.3643 12.072 63.8763 12.408C64.3883 12.728 64.7803 13.152 65.0523 13.68H65.4843C65.7563 13.168 66.1403 12.744 66.6363 12.408C67.1323 12.072 67.8363 11.904 68.7483 11.904C69.4843 11.904 70.1483 12.064 70.7403 12.384C71.3483 12.688 71.8283 13.16 72.1803 13.8C72.5483 14.424 72.7323 15.216 72.7323 16.176V24H69.7083V16.392C69.7083 15.736 69.5403 15.248 69.2043 14.928C68.8683 14.592 68.3963 14.424 67.7883 14.424C67.1003 14.424 66.5643 14.648 66.1803 15.096C65.8123 15.528 65.6283 16.152 65.6283 16.968V24H62.6043V16.392C62.6043 15.736 62.4363 15.248 62.1003 14.928C61.7643 14.592 61.2923 14.424 60.6843 14.424C59.9963 14.424 59.4603 14.648 59.0763 15.096C58.7083 15.528 58.5243 16.152 58.5243 16.968V24H55.5003ZM75.6514 24V7.2H78.6754V16.488H79.1074L83.0434 12.096H86.9794L81.4834 17.856L87.1714 24H83.2834L79.1074 19.272H78.6754V24H75.6514ZM93.5623 24.336C92.3783 24.336 91.3303 24.088 90.4183 23.592C89.5223 23.08 88.8183 22.368 88.3063 21.456C87.8103 20.528 87.5623 19.44 87.5623 18.192V17.904C87.5623 16.656 87.8103 15.576 88.3063 14.664C88.8023 13.736 89.4983 13.024 90.3943 12.528C91.2903 12.016 92.3303 11.76 93.5143 11.76C94.6823 11.76 95.6983 12.024 96.5623 12.552C97.4263 13.064 98.0983 13.784 98.5783 14.712C99.0583 15.624 99.2983 16.688 99.2983 17.904V18.936H90.6343C90.6663 19.752 90.9703 20.416 91.5463 20.928C92.1223 21.44 92.8263 21.696 93.6583 21.696C94.5063 21.696 95.1303 21.512 95.5303 21.144C95.9303 20.776 96.2343 20.368 96.4423 19.92L98.9143 21.216C98.6903 21.632 98.3623 22.088 97.9303 22.584C97.5143 23.064 96.9543 23.48 96.2503 23.832C95.5463 24.168 94.6503 24.336 93.5623 24.336ZM90.6583 16.68H96.2263C96.1623 15.992 95.8823 15.44 95.3863 15.024C94.9063 14.608 94.2743 14.4 93.4903 14.4C92.6743 14.4 92.0263 14.608 91.5463 15.024C91.0663 15.44 90.7703 15.992 90.6583 16.68ZM102.953 28.8V26.16H109.433C109.881 26.16 110.105 25.92 110.105 25.44V22.44H109.673C109.545 22.712 109.345 22.984 109.073 23.256C108.801 23.528 108.433 23.752 107.969 23.928C107.505 24.104 106.913 24.192 106.193 24.192C105.265 24.192 104.449 23.984 103.745 23.568C103.057 23.136 102.521 22.544 102.137 21.792C101.753 21.04 101.561 20.176 101.561 19.2V12.096H104.585V18.96C104.585 19.856 104.801 20.528 105.233 20.976C105.681 21.424 106.313 21.648 107.129 21.648C108.057 21.648 108.777 21.344 109.289 20.736C109.801 20.112 110.057 19.248 110.057 18.144V12.096H113.081V26.112C113.081 26.928 112.841 27.576 112.361 28.056C111.881 28.552 111.241 28.8 110.441 28.8H102.953ZM121.536 24.336C120.352 24.336 119.304 24.088 118.392 23.592C117.496 23.08 116.792 22.368 116.28 21.456C115.784 20.528 115.536 19.44 115.536 18.192V17.904C115.536 16.656 115.784 15.576 116.28 14.664C116.776 13.736 117.472 13.024 118.368 12.528C119.264 12.016 120.304 11.76 121.488 11.76C122.656 11.76 123.672 12.024 124.536 12.552C125.4 13.064 126.072 13.784 126.552 14.712C127.032 15.624 127.272 16.688 127.272 17.904V18.936H118.608C118.64 19.752 118.944 20.416 119.52 20.928C120.096 21.44 120.8 21.696 121.632 21.696C122.48 21.696 123.104 21.512 123.504 21.144C123.904 20.776 124.208 20.368 124.416 19.92L126.888 21.216C126.664 21.632 126.336 22.088 125.904 22.584C125.488 23.064 124.928 23.48 124.224 23.832C123.52 24.168 122.624 24.336 121.536 24.336ZM118.632 16.68H124.2C124.136 15.992 123.856 15.44 123.36 15.024C122.88 14.608 122.248 14.4 121.464 14.4C120.648 14.4 120 14.608 119.52 15.024C119.04 15.44 118.744 15.992 118.632 16.68ZM134.575 24.336C133.023 24.336 131.751 24 130.759 23.328C129.767 22.656 129.167 21.696 128.959 20.448L131.743 19.728C131.855 20.288 132.039 20.728 132.295 21.048C132.567 21.368 132.895 21.6 133.279 21.744C133.679 21.872 134.111 21.936 134.575 21.936C135.279 21.936 135.799 21.816 136.135 21.576C136.471 21.32 136.639 21.008 136.639 20.64C136.639 20.272 136.479 19.992 136.159 19.8C135.839 19.592 135.327 19.424 134.623 19.296L133.951 19.176C133.119 19.016 132.359 18.8 131.671 18.528C130.983 18.24 130.431 17.848 130.015 17.352C129.599 16.856 129.391 16.216 129.391 15.432C129.391 14.248 129.823 13.344 130.687 12.72C131.551 12.08 132.687 11.76 134.095 11.76C135.423 11.76 136.527 12.056 137.407 12.648C138.287 13.24 138.863 14.016 139.135 14.976L136.327 15.84C136.199 15.232 135.935 14.8 135.535 14.544C135.151 14.288 134.671 14.16 134.095 14.16C133.519 14.16 133.079 14.264 132.775 14.472C132.471 14.664 132.319 14.936 132.319 15.288C132.319 15.672 132.479 15.96 132.799 16.152C133.119 16.328 133.551 16.464 134.095 16.56L134.767 16.68C135.663 16.84 136.471 17.056 137.191 17.328C137.927 17.584 138.503 17.96 138.919 18.456C139.351 18.936 139.567 19.592 139.567 20.424C139.567 21.672 139.111 22.64 138.199 23.328C137.303 24 136.095 24.336 134.575 24.336Z" fill="white"/>
<path fill-rule="evenodd" clip-rule="evenodd" d="M55.2673 53.7843C55.1101 53.7873 54.9603 53.8519 54.8502 53.9641C54.74 54.0764 54.6784 54.2274 54.6784 54.3847V65.7974C54.6784 65.9567 54.7416 66.1094 54.8542 66.222C54.9668 66.3346 55.1196 66.3978 55.2788 66.3978C55.438 66.3978 55.5908 66.3346 55.7034 66.222C55.816 66.1094 55.8792 65.9567 55.8792 65.7974V54.3847C55.8793 54.3049 55.8633 54.226 55.8325 54.1524C55.8017 54.0789 55.7565 54.0122 55.6996 53.9563C55.6427 53.9004 55.5752 53.8564 55.5012 53.8269C55.4271 53.7973 55.3479 53.7829 55.2681 53.7843H55.2673ZM64.3523 57.203C64.2738 57.2053 64.1966 57.2228 64.125 57.2547L58.9723 59.5546C58.8669 59.6023 58.7775 59.6793 58.7147 59.7765C58.652 59.8737 58.6186 59.9869 58.6186 60.1025C58.6186 60.2182 58.652 60.3314 58.7147 60.4286C58.7775 60.5258 58.8669 60.6028 58.9723 60.6505L64.125 62.9578C64.2025 62.9926 64.2862 63.0108 64.3711 63.0111C64.5084 63.0107 64.6413 62.9632 64.7478 62.8766C64.8544 62.79 64.9281 62.6696 64.9565 62.5353C64.9851 62.401 64.9667 62.261 64.9044 62.1386C64.8422 62.0163 64.74 61.9189 64.6147 61.8628L60.6891 60.1034L64.6147 58.3505C64.7597 58.2853 64.8728 58.1653 64.9297 58.0169C64.9866 57.8685 64.9825 57.7036 64.9182 57.5582C64.8695 57.4497 64.7898 57.3581 64.689 57.2949C64.5883 57.2317 64.4711 57.1997 64.3523 57.203ZM45.6291 61.3881C45.7127 61.3485 45.8044 61.3288 45.8969 61.3304V61.3313C46.0278 61.3338 46.1542 61.379 46.2569 61.46C46.3597 61.541 46.4331 61.6533 46.4662 61.7799C47.0946 64.1872 48.5038 66.318 50.4731 67.8385C52.4423 69.359 54.8603 70.1834 57.3482 70.1824C57.5075 70.1824 57.6602 70.2457 57.7728 70.3583C57.8854 70.4709 57.9486 70.6236 57.9486 70.7828C57.9486 70.9421 57.8854 71.0948 57.7728 71.2074C57.6602 71.32 57.5075 71.3832 57.3482 71.3832C51.6821 71.3832 46.7287 67.5577 45.3047 62.081C45.2816 61.9913 45.2795 61.8976 45.2985 61.807C45.3176 61.7164 45.3574 61.6315 45.4147 61.5588C45.472 61.4862 45.5454 61.4277 45.6291 61.3881Z" fill="white"/>
<path d="M153.994 56.5645C153.309 56.868 152.573 57.073 151.8 57.1657C152.598 56.6882 153.195 55.9366 153.48 55.0511C152.73 55.4965 151.909 55.81 151.053 55.978C150.478 55.3635 149.716 54.9563 148.885 54.8194C148.054 54.6825 147.202 54.8238 146.459 55.2211C145.717 55.6185 145.127 56.2498 144.78 57.017C144.434 57.7842 144.35 58.6444 144.542 59.464C143.023 59.3877 141.537 58.9928 140.18 58.3049C138.823 57.617 137.626 56.6516 136.666 55.4711C136.338 56.0371 136.15 56.6932 136.15 57.3921C136.149 58.0212 136.304 58.6407 136.601 59.1956C136.897 59.7504 137.326 60.2236 137.849 60.573C137.242 60.5537 136.649 60.3897 136.119 60.0948V60.144C136.118 61.0263 136.424 61.8815 136.982 62.5645C137.541 63.2474 138.319 63.716 139.184 63.8908C138.621 64.0431 138.031 64.0655 137.458 63.9564C137.702 64.7157 138.177 65.3796 138.817 65.8553C139.457 66.3309 140.23 66.5945 141.028 66.609C139.674 67.6717 138.002 68.248 136.282 68.2454C135.977 68.2455 135.672 68.2277 135.37 68.1921C137.116 69.3152 139.15 69.9112 141.226 69.9088C148.256 69.9088 152.098 64.0868 152.098 59.0375C152.098 58.8734 152.094 58.7077 152.087 58.5437C152.834 58.0031 153.48 57.3338 153.992 56.5669L153.994 56.5645Z" fill="white"/>
<path fill-rule="evenodd" clip-rule="evenodd" d="M9.84282 52.8C4.40466 52.8 0 57.2047 0 62.6429C0 66.9983 2.81751 70.6771 6.73003 71.9812C7.22217 72.0674 7.40672 71.7721 7.40672 71.5137C7.40672 71.2799 7.39442 70.5048 7.39442 69.6805C4.92141 70.1357 4.28163 69.0776 4.08477 68.524C3.97404 68.241 3.4942 67.3674 3.07588 67.1337C2.73138 66.9491 2.23924 66.4939 3.06358 66.4816C3.8387 66.4693 4.39236 67.1952 4.57691 67.4905C5.46277 68.9792 6.87767 68.5609 7.44363 68.3025C7.52976 67.6627 7.78813 67.2321 8.07111 66.986C5.88109 66.7399 3.59263 65.891 3.59263 62.1261C3.59263 61.0557 3.97404 60.1699 4.60152 59.4809C4.50309 59.2348 4.15859 58.2259 4.69995 56.8725C4.69995 56.8725 5.52428 56.6141 7.40672 57.8814C8.19415 57.6599 9.03079 57.5492 9.86743 57.5492C10.7041 57.5492 11.5407 57.6599 12.3281 57.8814C14.2106 56.6018 15.0349 56.8725 15.0349 56.8725C15.5763 58.2259 15.2318 59.2348 15.1333 59.4809C15.7608 60.1699 16.1422 61.0434 16.1422 62.1261C16.1422 65.9033 13.8415 66.7399 11.6514 66.986C12.0082 67.2936 12.3158 67.8842 12.3158 68.8069C12.3158 70.1234 12.3035 71.1815 12.3035 71.5137C12.3035 71.7721 12.4881 72.0797 12.9802 71.9812C14.9341 71.3216 16.632 70.0657 17.8349 68.3906C19.0378 66.7153 19.6851 64.7051 19.6856 62.6429C19.6856 57.2047 15.281 52.8 9.84282 52.8Z" fill="white"/>
<path fill-rule="evenodd" clip-rule="evenodd" d="M94.841 54.6434C93.9293 54.6434 93.1876 55.3841 93.1876 56.2947C93.1876 57.2058 93.9293 57.947 94.841 57.947C95.751 57.947 96.4912 57.2058 96.4912 56.2947C96.4912 55.3841 95.751 54.6434 94.841 54.6434ZM93.4132 59.1985V68.3612H96.2633L96.2644 59.1985H93.4132ZM98.0517 59.1977V68.3603L100.895 68.3614L100.896 63.8276C100.896 62.6639 101.099 61.4743 102.603 61.4743C104.083 61.4743 104.083 62.8781 104.083 63.9032V68.3603L106.93 68.3592V63.3351C106.93 61.0678 106.516 58.9698 103.514 58.9698C102.104 58.9698 101.182 59.7668 100.82 60.4494H100.78L100.78 59.1977H98.0517ZM108.348 71.2H91.9855C91.2048 71.2 90.5696 70.5784 90.5696 69.8144V53.3845C90.5696 52.6211 91.2048 52 91.9855 52H108.348C109.132 52 109.77 52.6211 109.77 53.3845V69.8144C109.77 70.5784 109.132 71.2 108.348 71.2Z" fill="white"/>
</g>
<defs>
<clipPath id="clip0_5400_1287">
<rect width="153.994" height="72" fill="white"/>
</clipPath>
</defs>
</svg>
