<svg width="709" height="32" viewBox="0 0 709 32" fill="none" xmlns="http://www.w3.org/2000/svg">
<g clip-path="url(#clip0_5400_1693)">
<path d="M7.168 27.448C6.03733 27.448 5.024 27.256 4.128 26.872C3.232 26.4667 2.51733 25.8907 1.984 25.144C1.472 24.376 1.216 23.448 1.216 22.36C1.216 21.272 1.472 20.3653 1.984 19.64C2.51733 18.8933 3.24267 18.3387 4.16 17.976C5.09867 17.592 6.16533 17.4 7.36 17.4H11.712V16.504C11.712 15.7573 11.4773 15.1493 11.008 14.68C10.5387 14.1893 9.792 13.944 8.768 13.944C7.76533 13.944 7.01867 14.1787 6.528 14.648C6.03733 15.096 5.71733 15.6827 5.568 16.408L1.856 15.16C2.112 14.3493 2.51733 13.6133 3.072 12.952C3.648 12.2693 4.40533 11.7253 5.344 11.32C6.304 10.8933 7.46667 10.68 8.832 10.68C10.9227 10.68 12.576 11.2027 13.792 12.248C15.008 13.2933 15.616 14.808 15.616 16.792V22.712C15.616 23.352 15.9147 23.672 16.512 23.672H17.792V27H15.104C14.3147 27 13.664 26.808 13.152 26.424C12.64 26.04 12.384 25.528 12.384 24.888V24.856H11.776C11.6907 25.112 11.4987 25.4533 11.2 25.88C10.9013 26.2853 10.432 26.648 9.792 26.968C9.152 27.288 8.27733 27.448 7.168 27.448ZM7.872 24.184C9.00267 24.184 9.92 23.8747 10.624 23.256C11.3493 22.616 11.712 21.7733 11.712 20.728V20.408H7.648C6.90133 20.408 6.31467 20.568 5.888 20.888C5.46133 21.208 5.248 21.656 5.248 22.232C5.248 22.808 5.472 23.2773 5.92 23.64C6.368 24.0027 7.01867 24.184 7.872 24.184ZM26.3831 27.448C25.1244 27.448 23.9404 27.1387 22.8311 26.52C21.7431 25.88 20.8684 24.952 20.2071 23.736C19.5457 22.52 19.2151 21.048 19.2151 19.32V18.808C19.2151 17.08 19.5457 15.608 20.2071 14.392C20.8684 13.176 21.7431 12.2587 22.8311 11.64C23.9191 11 25.1031 10.68 26.3831 10.68C27.3431 10.68 28.1431 10.7973 28.7831 11.032C29.4444 11.2453 29.9777 11.5227 30.3831 11.864C30.7884 12.2053 31.0977 12.568 31.3111 12.952H31.8871V4.6H35.9191V27H31.9511V25.08H31.3751C31.0124 25.6773 30.4471 26.2213 29.6791 26.712C28.9324 27.2027 27.8337 27.448 26.3831 27.448ZM27.5991 23.928C28.8364 23.928 29.8711 23.5333 30.7031 22.744C31.5351 21.9333 31.9511 20.76 31.9511 19.224V18.904C31.9511 17.368 31.5351 16.2053 30.7031 15.416C29.8924 14.6053 28.8577 14.2 27.5991 14.2C26.3617 14.2 25.3271 14.6053 24.4951 15.416C23.6631 16.2053 23.2471 17.368 23.2471 18.904V19.224C23.2471 20.76 23.6631 21.9333 24.4951 22.744C25.3271 23.5333 26.3617 23.928 27.5991 23.928ZM44.8729 27.448C43.7422 27.448 42.7289 27.256 41.8329 26.872C40.9369 26.4667 40.2222 25.8907 39.6889 25.144C39.1769 24.376 38.9209 23.448 38.9209 22.36C38.9209 21.272 39.1769 20.3653 39.6889 19.64C40.2222 18.8933 40.9475 18.3387 41.8649 17.976C42.8035 17.592 43.8702 17.4 45.0649 17.4H49.4169V16.504C49.4169 15.7573 49.1822 15.1493 48.7129 14.68C48.2435 14.1893 47.4969 13.944 46.4729 13.944C45.4702 13.944 44.7235 14.1787 44.2329 14.648C43.7422 15.096 43.4222 15.6827 43.2729 16.408L39.5609 15.16C39.8169 14.3493 40.2222 13.6133 40.7769 12.952C41.3529 12.2693 42.1102 11.7253 43.0489 11.32C44.0089 10.8933 45.1715 10.68 46.5369 10.68C48.6275 10.68 50.2809 11.2027 51.4969 12.248C52.7129 13.2933 53.3209 14.808 53.3209 16.792V22.712C53.3209 23.352 53.6195 23.672 54.2169 23.672H55.4969V27H52.8089C52.0195 27 51.3689 26.808 50.8569 26.424C50.3449 26.04 50.0889 25.528 50.0889 24.888V24.856H49.4809C49.3955 25.112 49.2035 25.4533 48.9049 25.88C48.6062 26.2853 48.1369 26.648 47.4969 26.968C46.8569 27.288 45.9822 27.448 44.8729 27.448ZM45.5769 24.184C46.7075 24.184 47.6249 23.8747 48.3289 23.256C49.0542 22.616 49.4169 21.7733 49.4169 20.728V20.408H45.3529C44.6062 20.408 44.0195 20.568 43.5929 20.888C43.1662 21.208 42.9529 21.656 42.9529 22.232C42.9529 22.808 43.1769 23.2773 43.6249 23.64C44.0729 24.0027 44.7235 24.184 45.5769 24.184ZM58.0004 27V11.128H61.9684V12.856H62.5444C62.8218 12.3227 63.2804 11.864 63.9204 11.48C64.5604 11.0747 65.4031 10.872 66.4484 10.872C67.5791 10.872 68.4858 11.096 69.1684 11.544C69.8511 11.9707 70.3738 12.536 70.7364 13.24H71.3124C71.6751 12.5573 72.1871 11.992 72.8484 11.544C73.5098 11.096 74.4484 10.872 75.6644 10.872C76.6458 10.872 77.5311 11.0853 78.3204 11.512C79.1311 11.9173 79.7711 12.5467 80.2404 13.4C80.7311 14.232 80.9764 15.288 80.9764 16.568V27H76.9444V16.856C76.9444 15.9813 76.7204 15.3307 76.2724 14.904C75.8244 14.456 75.1951 14.232 74.3844 14.232C73.4671 14.232 72.7524 14.5307 72.2404 15.128C71.7498 15.704 71.5044 16.536 71.5044 17.624V27H67.4724V16.856C67.4724 15.9813 67.2484 15.3307 66.8004 14.904C66.3524 14.456 65.7231 14.232 64.9124 14.232C63.9951 14.232 63.2804 14.5307 62.7684 15.128C62.2778 15.704 62.0324 16.536 62.0324 17.624V27H58.0004ZM84.8685 27V4.6H88.9005V16.984H89.4765L94.7245 11.128H99.9725L92.6445 18.808L100.228 27H95.0445L89.4765 20.696H88.9005V27H84.8685ZM108.75 27.448C107.171 27.448 105.774 27.1173 104.558 26.456C103.363 25.7733 102.424 24.824 101.742 23.608C101.08 22.3707 100.75 20.92 100.75 19.256V18.872C100.75 17.208 101.08 15.768 101.742 14.552C102.403 13.3147 103.331 12.3653 104.526 11.704C105.72 11.0213 107.107 10.68 108.686 10.68C110.243 10.68 111.598 11.032 112.75 11.736C113.902 12.4187 114.798 13.3787 115.438 14.616C116.078 15.832 116.398 17.2507 116.398 18.872V20.248H104.846C104.888 21.336 105.294 22.2213 106.062 22.904C106.83 23.5867 107.768 23.928 108.878 23.928C110.008 23.928 110.84 23.6827 111.374 23.192C111.907 22.7013 112.312 22.1573 112.59 21.56L115.886 23.288C115.587 23.8427 115.15 24.4507 114.574 25.112C114.019 25.752 113.272 26.3067 112.334 26.776C111.395 27.224 110.2 27.448 108.75 27.448ZM104.878 17.24H112.302C112.216 16.3227 111.843 15.5867 111.182 15.032C110.542 14.4773 109.699 14.2 108.654 14.2C107.566 14.2 106.702 14.4773 106.062 15.032C105.422 15.5867 105.027 16.3227 104.878 17.24ZM121.27 33.4V29.88H129.91C130.507 29.88 130.806 29.56 130.806 28.92V24.92H130.23C130.059 25.2827 129.793 25.6453 129.43 26.008C129.067 26.3707 128.577 26.6693 127.958 26.904C127.339 27.1387 126.55 27.256 125.59 27.256C124.353 27.256 123.265 26.9787 122.326 26.424C121.409 25.848 120.694 25.0587 120.182 24.056C119.67 23.0533 119.414 21.9013 119.414 20.6V11.128H123.446V20.28C123.446 21.4747 123.734 22.3707 124.31 22.968C124.907 23.5653 125.75 23.864 126.838 23.864C128.075 23.864 129.035 23.4587 129.718 22.648C130.401 21.816 130.742 20.664 130.742 19.192V11.128H134.774V29.816C134.774 30.904 134.454 31.768 133.814 32.408C133.174 33.0693 132.321 33.4 131.254 33.4H121.27ZM146.048 27.448C144.47 27.448 143.072 27.1173 141.856 26.456C140.662 25.7733 139.723 24.824 139.04 23.608C138.379 22.3707 138.048 20.92 138.048 19.256V18.872C138.048 17.208 138.379 15.768 139.04 14.552C139.702 13.3147 140.63 12.3653 141.824 11.704C143.019 11.0213 144.406 10.68 145.984 10.68C147.542 10.68 148.896 11.032 150.048 11.736C151.2 12.4187 152.096 13.3787 152.736 14.616C153.376 15.832 153.696 17.2507 153.696 18.872V20.248H142.144C142.187 21.336 142.592 22.2213 143.36 22.904C144.128 23.5867 145.067 23.928 146.176 23.928C147.307 23.928 148.139 23.6827 148.672 23.192C149.206 22.7013 149.611 22.1573 149.888 21.56L153.184 23.288C152.886 23.8427 152.448 24.4507 151.872 25.112C151.318 25.752 150.571 26.3067 149.632 26.776C148.694 27.224 147.499 27.448 146.048 27.448ZM142.176 17.24H149.6C149.515 16.3227 149.142 15.5867 148.48 15.032C147.84 14.4773 146.998 14.2 145.952 14.2C144.864 14.2 144 14.4773 143.36 15.032C142.72 15.5867 142.326 16.3227 142.176 17.24ZM163.433 27.448C161.363 27.448 159.667 27 158.345 26.104C157.022 25.208 156.222 23.928 155.945 22.264L159.657 21.304C159.806 22.0507 160.051 22.6373 160.393 23.064C160.755 23.4907 161.193 23.8 161.705 23.992C162.238 24.1627 162.814 24.248 163.433 24.248C164.371 24.248 165.065 24.088 165.513 23.768C165.961 23.4267 166.185 23.0107 166.185 22.52C166.185 22.0293 165.971 21.656 165.545 21.4C165.118 21.1227 164.435 20.8987 163.497 20.728L162.601 20.568C161.491 20.3547 160.478 20.0667 159.561 19.704C158.643 19.32 157.907 18.7973 157.353 18.136C156.798 17.4747 156.521 16.6213 156.521 15.576C156.521 13.9973 157.097 12.792 158.249 11.96C159.401 11.1067 160.915 10.68 162.793 10.68C164.563 10.68 166.035 11.0747 167.209 11.864C168.382 12.6533 169.15 13.688 169.513 14.968L165.769 16.12C165.598 15.3093 165.246 14.7333 164.713 14.392C164.201 14.0507 163.561 13.88 162.793 13.88C162.025 13.88 161.438 14.0187 161.033 14.296C160.627 14.552 160.425 14.9147 160.425 15.384C160.425 15.896 160.638 16.28 161.065 16.536C161.491 16.7707 162.067 16.952 162.793 17.08L163.689 17.24C164.883 17.4533 165.961 17.7413 166.921 18.104C167.902 18.4453 168.67 18.9467 169.225 19.608C169.801 20.248 170.089 21.1227 170.089 22.232C170.089 23.896 169.481 25.1867 168.265 26.104C167.07 27 165.459 27.448 163.433 27.448Z" fill="white"/>
<path fill-rule="evenodd" clip-rule="evenodd" d="M585.084 6.23059C584.888 6.23435 584.7 6.31508 584.563 6.45542C584.425 6.59577 584.348 6.78452 584.348 6.9811V21.247C584.348 21.4461 584.427 21.637 584.568 21.7778C584.709 21.9185 584.899 21.9975 585.098 21.9975C585.298 21.9975 585.488 21.9185 585.629 21.7778C585.77 21.637 585.849 21.4461 585.849 21.247V6.9811C585.849 6.88142 585.829 6.78272 585.791 6.69079C585.752 6.59884 585.696 6.51551 585.625 6.44564C585.553 6.37577 585.469 6.32077 585.377 6.28385C585.284 6.24693 585.185 6.22882 585.085 6.23059H585.084ZM596.44 10.504C596.342 10.5068 596.246 10.5288 596.156 10.5686L589.715 13.4435C589.584 13.5031 589.472 13.5993 589.393 13.7208C589.315 13.8423 589.273 13.9838 589.273 14.1284C589.273 14.273 589.315 14.4145 589.393 14.536C589.472 14.6575 589.584 14.7538 589.715 14.8133L596.156 17.6974C596.253 17.741 596.358 17.7638 596.464 17.7641C596.635 17.7636 596.802 17.7042 596.935 17.5961C597.068 17.4878 597.16 17.3372 597.196 17.1694C597.231 17.0015 597.208 16.8265 597.131 16.6735C597.053 16.5206 596.925 16.3989 596.768 16.3287L591.861 14.1295L596.768 11.9384C596.95 11.8568 597.091 11.7069 597.162 11.5214C597.233 11.3358 597.228 11.1297 597.148 10.948C597.087 10.8124 596.987 10.6978 596.861 10.6188C596.735 10.5398 596.589 10.4999 596.44 10.504ZM573.036 15.7354C573.141 15.6859 573.255 15.6612 573.371 15.6633V15.6643C573.535 15.6675 573.693 15.724 573.821 15.8253C573.95 15.9265 574.041 16.0669 574.083 16.2252C574.868 19.2343 576.63 21.8977 579.091 23.7984C581.553 25.699 584.575 26.7295 587.685 26.7282C587.884 26.7282 588.075 26.8073 588.216 26.9481C588.357 27.0888 588.436 27.2798 588.436 27.4787C588.436 27.6778 588.357 27.8688 588.216 28.0095C588.075 28.1503 587.884 28.2293 587.685 28.2293C580.603 28.2293 574.411 23.4474 572.631 16.6014C572.602 16.4894 572.599 16.3722 572.623 16.259C572.647 16.1458 572.697 16.0396 572.768 15.9488C572.84 15.8579 572.932 15.7849 573.036 15.7354Z" fill="white"/>
<path d="M708.492 9.70559C707.636 10.0849 706.717 10.3413 705.75 10.4571C706.747 9.8602 707.494 8.92069 707.85 7.81393C706.912 8.37065 705.886 8.76253 704.817 8.97251C704.097 8.20443 703.145 7.69532 702.106 7.52425C701.068 7.35318 700.002 7.5297 699.074 8.02642C698.146 8.52314 697.409 9.31225 696.975 10.2712C696.542 11.2302 696.437 12.3055 696.678 13.33C694.779 13.2347 692.921 12.741 691.225 11.8812C689.529 11.0213 688.032 9.81444 686.833 8.33888C686.423 9.04633 686.187 9.86656 686.187 10.7401C686.187 11.5265 686.38 12.3009 686.751 12.9945C687.121 13.6881 687.658 14.2795 688.311 14.7162C687.553 14.6921 686.811 14.4871 686.148 14.1185V14.18C686.148 15.2829 686.53 16.3519 687.228 17.2056C687.926 18.0593 688.899 18.645 689.98 18.8635C689.276 19.0539 688.538 19.0819 687.822 18.9455C688.127 19.8946 688.722 20.7244 689.522 21.3191C690.322 21.9136 691.288 22.2431 692.285 22.2613C690.593 23.5896 688.503 24.3099 686.352 24.3067C685.971 24.3069 685.59 24.2846 685.212 24.2402C687.395 25.644 689.937 26.389 692.533 26.386C701.319 26.386 706.123 19.1085 706.123 12.7969C706.123 12.5918 706.118 12.3847 706.109 12.1796C707.043 11.5039 707.849 10.6672 708.49 9.70867L708.492 9.70559Z" fill="white"/>
<path fill-rule="evenodd" clip-rule="evenodd" d="M528.304 5C521.506 5 516 10.5058 516 17.3035C516 22.7478 519.522 27.3463 524.413 28.9765C525.028 29.0842 525.258 28.715 525.258 28.3921C525.258 28.0999 525.243 27.131 525.243 26.1005C522.152 26.6696 521.352 25.347 521.106 24.6549C520.968 24.3012 520.368 23.2092 519.845 22.917C519.414 22.6863 518.799 22.1173 519.829 22.1019C520.798 22.0865 521.49 22.9939 521.721 23.363C522.828 25.2239 524.597 24.701 525.305 24.3781C525.412 23.5783 525.735 23.04 526.089 22.7325C523.351 22.4249 520.491 21.3637 520.491 16.6576C520.491 15.3196 520.968 14.2123 521.752 13.351C521.629 13.0434 521.198 11.7823 521.875 10.0906C521.875 10.0906 522.905 9.76762 525.258 11.3517C526.243 11.0749 527.288 10.9365 528.334 10.9365C529.38 10.9365 530.426 11.0749 531.41 11.3517C533.763 9.75224 534.794 10.0906 534.794 10.0906C535.47 11.7823 535.04 13.0434 534.917 13.351C535.701 14.2123 536.178 15.3042 536.178 16.6576C536.178 21.3791 533.302 22.4249 530.564 22.7325C531.01 23.1169 531.395 23.8552 531.395 25.0086C531.395 26.6542 531.379 27.9768 531.379 28.3921C531.379 28.715 531.61 29.0995 532.225 28.9765C534.668 28.1519 536.79 26.5821 538.294 24.4882C539.797 22.3941 540.606 19.8814 540.607 17.3035C540.607 10.5058 535.101 5 528.304 5Z" fill="white"/>
<path fill-rule="evenodd" clip-rule="evenodd" d="M634.551 7.3042C633.412 7.3042 632.484 8.23017 632.484 9.36833C632.484 10.5072 633.412 11.4338 634.551 11.4338C635.689 11.4338 636.614 10.5072 636.614 9.36833C636.614 8.23017 635.689 7.3042 634.551 7.3042ZM632.767 12.9982V24.4515H636.329L636.331 12.9982H632.767ZM638.565 12.9971V24.4503L642.119 24.4517L642.121 18.7845C642.121 17.3298 642.374 15.8429 644.253 15.8429C646.104 15.8429 646.104 17.5976 646.104 18.879V24.4503L649.663 24.449V18.1689C649.663 15.3348 649.146 12.7122 645.393 12.7122C643.63 12.7122 642.477 13.7085 642.025 14.5618H641.975L641.975 12.9971H638.565ZM651.435 28H630.982C630.006 28 629.212 27.223 629.212 26.268V5.73068C629.212 4.77638 630.006 4 630.982 4H651.435C652.415 4 653.212 4.77638 653.212 5.73068V26.268C653.212 27.223 652.415 28 651.435 28Z" fill="white"/>
</g>
<defs>
<clipPath id="clip0_5400_1693">
<rect width="708.492" height="32" fill="white"/>
</clipPath>
</defs>
</svg>
